<svg width="25" height="24" viewBox="0 0 25 24" fill="none" xmlns="http://www.w3.org/2000/svg">
	<path fill-rule="evenodd" clip-rule="evenodd"
		d="M18.8521 8.5C18.8521 9.88071 17.7328 11 16.3521 11C14.9713 11 13.8521 9.88071 13.8521 8.5C13.8521 7.11929 14.9713 6 16.3521 6C17.7328 6 18.8521 7.11929 18.8521 8.5ZM17.3521 8.5C17.3521 9.05228 16.9043 9.5 16.3521 9.5C15.7998 9.5 15.3521 9.05228 15.3521 8.5C15.3521 7.94772 15.7998 7.5 16.3521 7.5C16.9043 7.5 17.3521 7.94772 17.3521 8.5Z"
		fill="white" />
	<path fill-rule="evenodd" clip-rule="evenodd"
		d="M3.85205 5V19C3.85205 20.1046 4.74748 21 5.85205 21H19.8521C20.9566 21 21.8521 20.1046 21.8521 19V5C21.8521 3.89543 20.9566 3 19.8521 3H5.85205C4.74748 3 3.85205 3.89543 3.85205 5ZM19.8521 4.5H5.85205C5.57591 4.5 5.35205 4.72386 5.35205 5V14.4393L9.32172 10.4697C9.61461 10.1768 10.0895 10.1768 10.3824 10.4697L14.8521 14.9393L17.3217 12.4697C17.6146 12.1768 18.0895 12.1768 18.3824 12.4697L20.3521 14.4393V5C20.3521 4.72386 20.1282 4.5 19.8521 4.5ZM9.85205 12.0607L5.35205 16.5607V19C5.35205 19.2761 5.57591 19.5 5.85205 19.5H19.8521C20.1282 19.5 20.3521 19.2761 20.3521 19V16.5607L17.8521 14.0607L15.3824 16.5303C15.0895 16.8232 14.6146 16.8232 14.3217 16.5303L9.85205 12.0607Z"
		fill="white" />
</svg>
